<?xml version="1.0" encoding="UTF-8"?>
<svg id="Triangle" xmlns="http://www.w3.org/2000/svg" viewBox="0 0 400 400">
  <defs>
    <style>
      .cls-1 {
        fill: #231f20;
      }

      .cls-2 {
        fill: none;
        stroke: #231f20;
        stroke-miterlimit: 10;
        stroke-width: 12px;
      }
    </style>
  </defs>
  <path class="cls-2" d="M340.05,249.93c-6.15,7.23-25.69,6.61-39.18,6.81-10.52.03-21.07.02-31.87.02-58.51-.1-131.24.19-178.71-.12-7.4-.15-14.86-.41-21.12-1.91-9.5-2.48-12.13-7.21-13.91-14.48-1.24-5.51-1.55-12.73-1.67-21.09.06-15.99-.73-38.51,1-53.37.85-7.44,3.95-15.83,14.12-18.03,10.24-2.46,23.37-1.99,34.95-2.14,57.66.14,148.86-.29,208.09.16,4.88.13,9.16.35,12.85.79,12.11,1.39,17.29,5.3,19.66,13.92,3.57,16.66,1.72,40.89,2.08,58.68-.14,9.27-.15,24.83-6.25,30.72l-.05.05Z"/>
  <g>
    <path class="cls-1" d="M161,228.03c-.6-1.44-1.25-3.1-1.94-5-.69-1.89-1.43-3.88-2.21-5.98-1.8.06-3.69.11-5.67.13-1.98.03-3.99.04-6.03.04h-7.02c-2.1,0-4.02-.03-5.76-.09-.72,2.1-1.41,4.08-2.07,5.94-.66,1.86-1.29,3.51-1.89,4.95-1.2,3.06-2.94,4.59-5.22,4.59-.84,0-1.63-.27-2.38-.81-.75-.54-1.12-1.32-1.12-2.34s.18-2.35.54-4c.36-1.65.82-3.42,1.4-5.31.57-1.89,1.18-3.84,1.84-5.85.66-2.01,1.29-3.88,1.89-5.62.6-1.92,1.45-4.37,2.57-7.33,1.11-2.97,2.29-6.08,3.55-9.32s2.52-6.43,3.78-9.58,2.4-5.89,3.42-8.24c.24-.6.54-1.27.9-2.02.36-.75.79-1.45,1.3-2.12.51-.66,1.08-1.23,1.71-1.71.63-.48,1.33-.72,2.12-.72s1.5.26,2.16.76c.66.51,1.24,1.12,1.75,1.84.51.72.96,1.47,1.35,2.25.39.78.7,1.47.95,2.07.96,2.4,2.05,5.16,3.29,8.28,1.23,3.12,2.46,6.27,3.69,9.45,1.23,3.18,2.38,6.21,3.46,9.09s1.95,5.31,2.61,7.29c.54,1.74,1.15,3.6,1.84,5.58.69,1.98,1.33,3.93,1.94,5.85.6,1.92,1.09,3.71,1.48,5.36.39,1.65.58,2.99.58,4s-.38,1.8-1.12,2.34c-.75.54-1.54.81-2.38.81-1.08,0-2.07-.37-2.97-1.12-.9-.75-1.68-1.9-2.34-3.46ZM145.07,208.23c1.44,0,2.88.02,4.32.04,1.44.03,2.88.08,4.32.13-.72-2.1-1.44-4.2-2.16-6.3-.72-2.1-1.4-4.11-2.03-6.03-.63-1.92-1.2-3.7-1.71-5.35-.51-1.65-.94-3.11-1.3-4.37-.24-.78-.51-1.41-.81-1.89-.3-.48-.69-.72-1.17-.72s-.87.26-1.17.77c-.3.51-.57,1.16-.81,1.93-.72,2.46-1.73,5.66-3.02,9.58-1.29,3.93-2.65,8.06-4.09,12.38,1.62-.06,3.24-.1,4.86-.13,1.62-.03,3.21-.04,4.77-.04Z"/>
    <path class="cls-1" d="M211.76,228.39c-1.92-2.64-3.74-5.27-5.45-7.88-1.71-2.61-3.54-5.47-5.49-8.6-1.95-3.12-4.17-6.58-6.66-10.39-2.49-3.81-5.48-8.26-8.96-13.37v12.11c0,3.57-.03,6.88-.09,9.94-.06,3.06-.12,5.94-.18,8.64-.06,2.7-.15,5.4-.27,8.1-.06,1.44-.2,2.55-.41,3.33-.21.78-.5,1.38-.85,1.8-.36.42-.77.67-1.22.77-.45.09-.98.13-1.57.13-1.08,0-1.98-.37-2.7-1.12-.72-.75-1.14-2.35-1.26-4.82-.3-6.6-.47-13.21-.5-19.84-.03-6.63-.04-13.48-.04-20.57,0-4.02.04-7.17.13-9.45s.3-3.99.63-5.13c.33-1.14.78-1.86,1.35-2.16.57-.3,1.33-.45,2.29-.45s2.22.74,3.78,2.21c1.56,1.47,3.27,3.41,5.13,5.8,1.86,2.4,3.85,5.16,5.99,8.28,2.13,3.12,4.24,6.33,6.34,9.63,2.1,3.3,4.12,6.57,6.08,9.81,1.95,3.24,3.74,6.18,5.36,8.82-.06-2.82-.09-5.92-.09-9.31v-11.3c0-4.74.03-8.65.09-11.74.06-3.09.22-5.54.49-7.33.27-1.8.71-3.06,1.31-3.78.6-.72,1.44-1.08,2.52-1.08,1.02,0,1.92.33,2.7.99.78.66,1.23,2.19,1.35,4.59.12,2.16.21,4.08.27,5.76.06,1.68.12,3.35.18,5,.06,1.65.09,3.36.09,5.13v13.72c0,2.46-.03,4.89-.09,7.29-.06,2.4-.12,4.83-.18,7.29-.06,2.46-.15,5.04-.27,7.74-.06,1.44-.2,2.55-.4,3.33-.21.78-.5,1.38-.86,1.8-.36.42-.76.67-1.21.77-.45.09-.98.13-1.58.13-1.02,0-1.89-.3-2.61-.9-.72-.6-1.77-1.83-3.15-3.69Z"/>
    <path class="cls-1" d="M249.2,227.04c-.12-3.3-.23-6.82-.32-10.57s-.13-8.08-.13-13.01l-17.91-25.65c-.48-.66-.86-1.35-1.12-2.07-.27-.72-.41-1.41-.41-2.07,0-1.14.32-2.08.95-2.83.63-.75,1.72-1.12,3.29-1.12,1.26,0,2.38.35,3.38,1.04.99.69,1.9,1.7,2.75,3.02l13.41,21.33,13.41-21.33c.84-1.32,1.75-2.33,2.75-3.02.99-.69,2.12-1.04,3.38-1.04,1.56,0,2.66.38,3.29,1.12.63.75.95,1.7.95,2.83,0,.66-.14,1.35-.41,2.07-.27.72-.65,1.41-1.12,2.07l-17.55,25.11c0,4.08-.04,8-.13,11.75-.09,3.75-.23,7.85-.41,12.29-.06,1.44-.2,2.55-.41,3.33-.21.78-.5,1.38-.85,1.8-.36.42-.77.67-1.22.77-.45.09-.98.13-1.57.13-1.08,0-1.98-.37-2.7-1.12-.72-.75-1.14-2.35-1.26-4.82Z"/>
  </g>
</svg>