<?xml version="1.0" encoding="UTF-8"?>
<svg id="Triangle" xmlns="http://www.w3.org/2000/svg" viewBox="0 0 400 400">
  <defs>
    <style>
      .cls-1, .cls-2 {
        stroke-linecap: round;
      }

      .cls-1, .cls-2, .cls-3 {
        stroke: #231f20;
        stroke-miterlimit: 10;
        stroke-width: 12px;
      }

      .cls-1, .cls-3 {
        fill: none;
      }

      .cls-2 {
        fill: #231f20;
      }
    </style>
  </defs>
  <path class="cls-3" d="M257.56,323.01c32.03-31.7,25.62-85.62,26.78-127.91.68-53.14,1.8-121.96-62.35-134.05-40.36-9.76-91.29,6.62-102.37,50.35-8.99,30.3-6.74,64.08-7.17,97.09.9,39.01-2.62,78.57,21.38,109.22,29.52,33.62,91.21,34.59,123.62,5.4l.1-.1Z"/>
  <path class="cls-1" d="M284.5,172.36H112.53s171.97,0,171.97,0Z"/>
  <path class="cls-1" d="M197.75,55.97v115.67s0-115.67,0-115.67Z"/>
  <path class="cls-2" d="M146.78,102.55c7.79-10.14,17.7-17.89,29.18-23,3.41-1.33,3.55-1.24,3.56,2.92,0,.45,0,.95,0,1.5,0,8.96,0,17.88,0,27.08-.08,13.14.16,29.97-.1,41.9.02,2.41-3.03,2.26-5.94,2.28-2.84,0-6.9,0-11.35,0-6.85,0-14.08,0-20.87,0-1.45,0-2.74,0-4.05-.03-3.69-.09-3.93-.66-4.06-3.47-.84-12.22,2.44-35.38,13.47-48.99l.14-.18Z"/>
</svg>