<?xml version="1.0" encoding="UTF-8"?>
<svg id="Triangle" xmlns="http://www.w3.org/2000/svg" viewBox="0 0 400 400">
  <defs>
    <style>
      .cls-1 {
        fill: #231f20;
      }

      .cls-2 {
        fill: none;
        stroke: #231f20;
        stroke-miterlimit: 10;
        stroke-width: 12px;
      }
    </style>
  </defs>
  <path class="cls-2" d="M340.05,244.16c-6.15,7.23-25.69,6.61-39.18,6.81-10.52.03-21.07.02-31.87.02-58.51-.1-131.24.19-178.71-.12-7.4-.15-14.86-.41-21.12-1.91-9.5-2.48-12.13-7.21-13.91-14.48-1.24-5.51-1.55-12.73-1.67-21.09.06-15.99-.73-38.51,1-53.37.85-7.44,3.95-15.83,14.12-18.03,10.24-2.46,23.37-1.99,34.95-2.14,57.66.14,148.86-.29,208.09.16,4.88.13,9.16.35,12.85.79,12.11,1.39,17.29,5.3,19.66,13.92,3.57,16.66,1.72,40.89,2.08,58.68-.14,9.27-.15,24.83-6.25,30.72l-.05.05Z"/>
  <g>
    <path class="cls-1" d="M93.98,163.31c1.68,0,3.61.14,5.8.41,2.19.27,4.24.75,6.17,1.44,1.92.69,3.54,1.59,4.86,2.7,1.32,1.11,1.98,2.48,1.98,4.1,0,.96-.27,1.77-.81,2.43-.54.66-1.41.99-2.61.99-.9,0-1.82-.18-2.75-.54-.93-.36-1.98-.73-3.15-1.12-1.17-.39-2.52-.77-4.05-1.12-1.53-.36-3.32-.54-5.35-.54-3.96,0-6.88.71-8.78,2.12-1.89,1.41-2.83,3.35-2.83,5.8,0,1.68.42,3.09,1.26,4.23.84,1.14,1.96,2.12,3.38,2.93,1.41.81,3,1.48,4.77,2.02,1.77.54,3.58,1.05,5.45,1.53,2.1.54,4.18,1.2,6.25,1.98,2.07.78,3.92,1.8,5.54,3.06,1.62,1.26,2.92,2.85,3.91,4.77.99,1.92,1.49,4.35,1.49,7.29s-.57,5.81-1.71,8.23c-1.14,2.43-2.7,4.5-4.68,6.21-1.98,1.71-4.35,3.03-7.11,3.96-2.76.93-5.76,1.4-9,1.4-1.8,0-3.9-.17-6.3-.5-2.4-.33-4.68-.9-6.84-1.71s-3.99-1.89-5.49-3.24c-1.5-1.35-2.25-3.02-2.25-5,0-1.2.32-2.16.95-2.88.63-.72,1.57-1.08,2.83-1.08,1.02,0,1.86.2,2.52.58.66.39,1.23.83,1.71,1.31,1.8,1.56,3.84,2.61,6.12,3.15,2.28.54,4.62.81,7.02.81,1.38,0,2.83-.1,4.36-.31,1.53-.21,2.93-.64,4.19-1.31,1.26-.66,2.31-1.6,3.15-2.83.84-1.23,1.26-2.89,1.26-4.99,0-1.92-.38-3.49-1.12-4.73-.75-1.23-1.75-2.26-3.02-3.1-1.26-.84-2.75-1.53-4.46-2.07s-3.55-1.08-5.53-1.62c-2.22-.6-4.41-1.26-6.57-1.98-2.16-.72-4.08-1.69-5.76-2.93-1.68-1.23-3.05-2.79-4.1-4.68-1.05-1.89-1.57-4.3-1.57-7.25s.54-5.52,1.62-7.74c1.08-2.22,2.55-4.08,4.41-5.58,1.86-1.5,4.06-2.64,6.62-3.42,2.55-.78,5.29-1.17,8.24-1.17Z"/>
    <path class="cls-1" d="M133.4,221.18c0,1.44-.14,2.55-.41,3.33-.27.78-.6,1.38-.99,1.8-.39.42-.84.67-1.35.77-.51.09-1.01.13-1.49.13-1.62,0-2.69-.36-3.2-1.08-.51-.72-.85-2.34-1.03-4.86-.12-1.32-.21-3.24-.27-5.76-.06-2.52-.11-5.52-.13-9-.03-3.48-.06-7.32-.09-11.52-.03-4.2-.04-8.64-.04-13.32,0-2.22.27-4.47.81-6.75.54-2.28,1.58-4.35,3.11-6.21,1.53-1.86,3.66-3.36,6.39-4.5,2.73-1.14,6.28-1.71,10.67-1.71,3.06,0,5.97.33,8.73.99,2.76.66,5.19,1.8,7.29,3.42,2.1,1.62,3.78,3.78,5.04,6.48,1.26,2.7,1.89,6.06,1.89,10.08s-.69,7.68-2.07,10.44c-1.38,2.76-3.33,4.95-5.85,6.57-2.52,1.62-5.52,2.76-9,3.42-3.48.66-7.29.99-11.43.99h-3.06c-1.02,0-2.16-.06-3.42-.18l-.09,16.47ZM159.32,183.29c0-4.02-1.12-7.05-3.38-9.09-2.25-2.04-5.99-3.06-11.21-3.06-1.98,0-3.68.17-5.08.5-1.41.33-2.57.9-3.46,1.71-.9.81-1.58,1.91-2.03,3.28-.45,1.38-.67,3.12-.67,5.22v6.98c0,2.61.03,5.06.09,7.33,1.38.06,2.92.09,4.63.09h4.82c1.8,0,3.67-.12,5.62-.36,1.95-.24,3.7-.79,5.26-1.67,1.56-.87,2.85-2.16,3.87-3.87,1.02-1.71,1.53-4.06,1.53-7.06Z"/>
    <path class="cls-1" d="M210.53,222.26c-.6-1.44-1.25-3.1-1.94-5-.69-1.89-1.43-3.88-2.21-5.98-1.8.06-3.69.11-5.67.13-1.98.03-3.99.04-6.03.04h-7.02c-2.1,0-4.02-.03-5.76-.09-.72,2.1-1.41,4.08-2.07,5.94-.66,1.86-1.29,3.51-1.89,4.95-1.2,3.06-2.94,4.59-5.22,4.59-.84,0-1.63-.27-2.38-.81-.75-.54-1.12-1.32-1.12-2.34s.18-2.35.54-4c.36-1.65.82-3.42,1.4-5.31.57-1.89,1.18-3.84,1.84-5.85.66-2.01,1.29-3.88,1.89-5.62.6-1.92,1.45-4.37,2.57-7.33,1.11-2.97,2.29-6.08,3.55-9.31,1.26-3.24,2.52-6.44,3.78-9.58,1.26-3.15,2.4-5.9,3.42-8.24.24-.6.54-1.27.9-2.02.36-.75.79-1.45,1.3-2.11.51-.66,1.08-1.23,1.71-1.71.63-.48,1.33-.72,2.12-.72s1.5.26,2.16.77c.66.51,1.24,1.12,1.75,1.84.51.72.96,1.47,1.35,2.25.39.78.7,1.47.95,2.07.96,2.4,2.05,5.16,3.29,8.28,1.23,3.12,2.46,6.27,3.69,9.45,1.23,3.18,2.38,6.21,3.46,9.09s1.95,5.31,2.61,7.29c.54,1.74,1.15,3.6,1.84,5.58.69,1.98,1.33,3.93,1.94,5.85.6,1.92,1.09,3.71,1.48,5.35.39,1.65.58,2.99.58,4s-.38,1.8-1.12,2.34c-.75.54-1.54.81-2.38.81-1.08,0-2.07-.37-2.97-1.12-.9-.75-1.68-1.9-2.34-3.46ZM194.6,202.46c1.44,0,2.88.02,4.32.04,1.44.03,2.88.08,4.32.14-.72-2.1-1.44-4.2-2.16-6.3-.72-2.1-1.4-4.11-2.03-6.03-.63-1.92-1.2-3.7-1.71-5.35-.51-1.65-.94-3.1-1.3-4.36-.24-.78-.51-1.41-.81-1.89-.3-.48-.69-.72-1.17-.72s-.87.26-1.17.77c-.3.51-.57,1.16-.81,1.94-.72,2.46-1.73,5.66-3.02,9.58-1.29,3.93-2.65,8.06-4.09,12.38,1.62-.06,3.24-.1,4.86-.14,1.62-.03,3.21-.04,4.77-.04Z"/>
    <path class="cls-1" d="M250.49,163.13c1.98,0,3.97.17,5.99.5,2.01.33,3.83.84,5.44,1.53,1.62.69,2.96,1.53,4.01,2.52,1.05.99,1.57,2.15,1.57,3.46s-.36,2.43-1.08,3.15c-.72.72-1.62,1.08-2.7,1.08-1.02,0-1.92-.16-2.7-.5-.78-.33-1.67-.7-2.66-1.12-.99-.42-2.18-.79-3.55-1.12-1.38-.33-3.21-.5-5.49-.5s-4.46.59-6.53,1.76c-2.07,1.17-3.87,2.79-5.4,4.86s-2.75,4.52-3.65,7.33c-.9,2.82-1.35,5.88-1.35,9.18,0,4.08.52,7.59,1.58,10.53,1.05,2.94,2.41,5.35,4.09,7.25,1.68,1.89,3.58,3.3,5.71,4.23,2.13.93,4.28,1.4,6.44,1.4,2.58,0,4.74-.27,6.48-.81,1.74-.54,3.22-1.14,4.46-1.8,1.23-.66,2.29-1.26,3.2-1.8.9-.54,1.77-.81,2.61-.81,1.02,0,1.83.29,2.43.85.6.57.9,1.58.9,3.02,0,1.2-.46,2.42-1.39,3.65-.93,1.23-2.28,2.34-4.05,3.33-1.77.99-3.89,1.8-6.35,2.43-2.46.63-5.22.94-8.28.94-3.36,0-6.71-.66-10.04-1.98-3.33-1.32-6.3-3.29-8.91-5.9s-4.72-5.88-6.34-9.81c-1.62-3.93-2.43-8.5-2.43-13.73s.73-9.87,2.21-13.95c1.47-4.08,3.48-7.54,6.03-10.4,2.55-2.85,5.52-5.02,8.91-6.53,3.39-1.5,7-2.25,10.84-2.25Z"/>
    <path class="cls-1" d="M278.75,213.17c-.12-1.92-.24-4.53-.36-7.83-.12-3.3-.18-6.69-.18-10.17,0-1.98.01-4.03.04-6.17.03-2.13.07-4.3.13-6.52.12-4.44.41-7.92.85-10.44.45-2.52,1.35-4.41,2.7-5.67,1.35-1.26,3.25-2.04,5.71-2.34,2.46-.3,5.73-.45,9.81-.45h1.93c1.23,0,2.71.02,4.46.04,1.74.03,3.56.08,5.45.14,1.89.06,3.46.12,4.72.18,1.32.12,2.39.29,3.2.5.81.21,1.42.48,1.84.81.42.33.69.72.81,1.17.12.45.18.94.18,1.48,0,1.38-.39,2.39-1.17,3.02-.78.63-2.37,1.04-4.77,1.21-1.2.12-2.96.2-5.26.23-2.31.03-4.67.04-7.06.04s-4.56.02-6.48.05c-1.92.03-3.12.04-3.6.04-1.56.06-2.66.4-3.29,1.03-.63.63-.95,2.12-.95,4.46,0,.54.04,1.85.13,3.92.09,2.07.14,4.97.14,8.69h7.47c3.18,0,5.77.04,7.79.14,2.01.09,3.57.29,4.68.58,1.11.3,1.88.78,2.29,1.44.42.66.63,1.53.63,2.61,0,.54-.04,1.04-.13,1.48-.09.45-.35.84-.76,1.17-.42.33-1.02.6-1.8.81-.78.21-1.89.38-3.33.5-1.74.12-3.38.2-4.9.23-1.53.03-3.05.04-4.54.04h-7.56v7.11c0,1.32.01,2.61.04,3.87.03,1.26.08,2.28.14,3.06.06.96.19,1.77.4,2.43.21.66.6,1.2,1.17,1.62.57.42,1.41.72,2.52.9,1.11.18,2.59.27,4.46.27h19.35c2.1,0,3.42.39,3.96,1.17.54.78.81,1.83.81,3.15,0,1.08-.24,1.91-.72,2.48-.48.57-1.63.99-3.46,1.26-1.83.27-4.56.44-8.19.5-3.63.06-8.63.09-14.99.09-2.7,0-4.92-.24-6.66-.72-1.74-.48-3.15-1.29-4.23-2.43-1.08-1.14-1.88-2.62-2.39-4.46-.51-1.83-.85-4.06-1.03-6.71Z"/>
  </g>
</svg>