<?xml version="1.0" encoding="UTF-8"?>
<svg id="Triangle" xmlns="http://www.w3.org/2000/svg" viewBox="0 0 400 400">
  <defs>
    <style>
      .cls-1 {
        fill: #231f20;
      }

      .cls-2 {
        fill: none;
        stroke: #231f20;
        stroke-miterlimit: 10;
        stroke-width: 12px;
      }
    </style>
  </defs>
  <g>
    <text/>
    <g>
      <path class="cls-1" d="M160,202.67c-1.28.09-2.58.16-3.91.21-1.33.05-2.67.07-4.04.07h-4.66c-1.56,0-3.29-.09-5.21-.27v27.83c0,2.93-.71,4.73-2.12,5.42-1.42.69-3.18,1.03-5.28,1.03-1.1,0-1.97-.07-2.61-.21-.64-.14-1.17-.41-1.58-.82s-.73-1.03-.96-1.85c-.23-.82-.39-1.96-.48-3.43-.18-1.64-.32-4.04-.41-7.2-.09-3.15-.16-7.24-.21-12.27-.05-5.03-.09-11.13-.14-18.3-.05-7.17-.07-15.6-.07-25.29,0-3.75.46-7.38,1.37-10.9.91-3.52,2.56-6.63,4.93-9.32,2.38-2.69,5.6-4.87,9.67-6.51,4.07-1.65,9.25-2.47,15.56-2.47,4.48,0,8.84.5,13.09,1.51,4.25,1.01,8.02,2.74,11.31,5.21,3.29,2.47,5.94,5.8,7.95,10.01,2.01,4.2,3.02,9.46,3.02,15.77,0,8.41-1.81,14.92-5.42,19.54-3.61,4.62-8.57,7.88-14.87,9.8l18.37,25.22c1.64,2.19,2.47,4.43,2.47,6.72,0,1.83-.62,3.27-1.85,4.32-1.23,1.05-2.76,1.58-4.59,1.58-2.01,0-3.75-.57-5.21-1.71-1.46-1.14-2.83-2.63-4.11-4.46l-20.02-29.2ZM181.53,170.73c0-6.31-1.9-10.99-5.69-14.05-3.79-3.06-9.8-4.59-18.03-4.59-3.02,0-5.53.25-7.54.75-2.01.5-3.61,1.44-4.8,2.81-1.19,1.37-2.04,3.27-2.54,5.69-.5,2.42-.75,5.51-.75,9.25v9.32c0,3.56.04,6.81.14,9.73,2.1.09,4.46.14,7.06.14h7.33c2.56,0,5.28-.16,8.16-.48,2.88-.32,5.55-1.14,8.02-2.47,2.47-1.32,4.52-3.24,6.17-5.76,1.65-2.51,2.47-5.96,2.47-10.35Z"/>
      <path class="cls-1" d="M235.95,153.59c-3.29,0-6.03.34-8.23,1.03-2.19.69-4.02,1.58-5.48,2.67-1.46,1.1-2.63,2.24-3.5,3.43-.87,1.19-1.69,2.33-2.47,3.43-.78,1.1-1.6,1.99-2.47,2.67-.87.69-1.94,1.03-3.22,1.03-2.19,0-3.72-.57-4.59-1.71-.87-1.14-1.3-2.67-1.3-4.59,0-4.02,1.51-7.77,4.52-11.24.91-1.1,2.17-2.26,3.77-3.5,1.6-1.23,3.52-2.35,5.76-3.36,2.24-1,4.84-1.85,7.81-2.54,2.97-.69,6.33-1.03,10.08-1.03,9.96,0,17.68,2.42,23.17,7.27,5.48,4.85,8.22,11.65,8.22,20.43,0,1.74-.16,3.66-.48,5.76-.32,2.1-.91,4.3-1.78,6.58-.87,2.29-2.08,4.66-3.63,7.13-1.55,2.47-3.61,4.98-6.17,7.54-2.29,2.29-4.71,4.39-7.27,6.31-2.56,1.92-5.21,3.84-7.95,5.76-2.74,1.92-5.6,3.95-8.57,6.1-2.97,2.15-5.96,4.59-8.98,7.33,2.92,1.55,6.08,2.56,9.46,3.02,3.38.46,7.17.69,11.38.69,3.93,0,7.08-.09,9.46-.27,2.38-.18,4.29-.41,5.76-.69,1.46-.27,2.6-.5,3.43-.68.82-.18,1.69-.27,2.6-.27,3.38,0,5.07,1.55,5.07,4.66,0,2.74-1.14,4.84-3.43,6.31-2.29,1.46-5.03,2.54-8.22,3.22-3.2.69-6.49,1.1-9.87,1.23-3.38.14-6.17.21-8.36.21-1.19,0-2.86-.07-5-.21-2.15-.14-4.46-.39-6.92-.75s-4.96-.89-7.47-1.58c-2.52-.69-4.8-1.6-6.85-2.74-2.06-1.14-3.73-2.56-5-4.25-1.28-1.69-1.92-3.72-1.92-6.1,0-3.2,1.17-6.24,3.5-9.12,2.33-2.88,5.23-5.71,8.71-8.5,3.47-2.79,7.22-5.57,11.24-8.36,4.02-2.79,7.77-5.67,11.24-8.64,3.47-2.97,6.38-6.05,8.71-9.25,2.33-3.2,3.5-6.67,3.5-10.42,0-4.66-1.58-8.16-4.73-10.49s-7.66-3.5-13.5-3.5Z"/>
    </g>
  </g>
  <path class="cls-2" d="M255.43,284.72c-29.85,16.74-93.11,16.52-122.15-2.7-26.93-17.52-33.15-54.74-41.27-85.12-4.43-20.06-11.73-41.83-7.95-62.27,5.33-26.56,36.87-28.47,59.24-29.69,24.16-1.02,48.1-.78,72.41-.79,15.04.08,29.97.12,44.79.83,16.29.99,36.14,2.16,47.87,14.09,18.32,19.55,2.62,55.92-3.27,78.64-10.07,31.75-17.96,69.65-49.45,86.89l-.22.12Z"/>
</svg>