<?xml version="1.0" encoding="UTF-8"?>
<svg id="Triangle" xmlns="http://www.w3.org/2000/svg" viewBox="0 0 400 400">
  <defs>
    <style>
      .cls-1 {
        fill: #231f20;
      }

      .cls-2 {
        fill: none;
        stroke: #231f20;
        stroke-miterlimit: 10;
        stroke-width: 12px;
      }
    </style>
  </defs>
  <path class="cls-2" d="M328.77,267.18c-5.65,9.81-23.6,8.97-36,9.23-9.67.05-19.36.03-29.29.03-53.77-.14-120.6.26-164.22-.16-6.8-.21-13.66-.55-19.41-2.6-8.73-3.36-11.15-9.78-12.78-19.64-1.14-7.48-1.42-17.27-1.53-28.6.06-21.69-.67-52.24.92-72.4.78-10.09,3.63-21.48,12.98-24.46,9.41-3.33,21.48-2.7,32.12-2.91,52.99.18,136.79-.39,191.23.22,4.49.17,8.42.48,11.81,1.07,11.13,1.89,15.89,7.19,18.07,18.89,3.28,22.6,1.58,55.47,1.91,79.6-.13,12.57-.13,33.69-5.75,41.67l-.05.07Z"/>
  <g>
    <path class="cls-1" d="M101.9,175.03c1.35,0,2.91.11,4.68.33,1.76.22,3.42.61,4.97,1.16,1.55.56,2.85,1.28,3.92,2.18,1.06.89,1.6,1.99,1.6,3.3,0,.77-.22,1.43-.65,1.96-.44.53-1.14.8-2.1.8-.73,0-1.46-.14-2.21-.44-.75-.29-1.6-.59-2.54-.91-.94-.31-2.03-.62-3.26-.91-1.23-.29-2.67-.44-4.32-.44-3.19,0-5.55.57-7.07,1.7-1.52,1.14-2.29,2.7-2.29,4.68,0,1.35.34,2.49,1.02,3.41.68.92,1.58,1.71,2.72,2.36,1.14.65,2.42,1.2,3.84,1.63,1.43.44,2.89.85,4.39,1.23,1.69.43,3.37.97,5.04,1.6,1.67.63,3.16,1.45,4.46,2.47s2.36,2.3,3.16,3.84c.8,1.55,1.2,3.51,1.2,5.88s-.46,4.68-1.38,6.64c-.92,1.96-2.18,3.63-3.77,5s-3.51,2.44-5.73,3.19c-2.22.75-4.64,1.12-7.25,1.12-1.45,0-3.14-.13-5.08-.4-1.93-.27-3.77-.73-5.51-1.38-1.74-.65-3.22-1.52-4.42-2.61-1.21-1.09-1.81-2.43-1.81-4.03,0-.97.25-1.74.76-2.32s1.27-.87,2.29-.87c.82,0,1.5.16,2.03.47s.99.67,1.38,1.05c1.45,1.26,3.09,2.1,4.93,2.54,1.84.44,3.72.65,5.66.65,1.11,0,2.28-.08,3.52-.25,1.23-.17,2.36-.52,3.37-1.05,1.02-.53,1.86-1.29,2.54-2.29.68-.99,1.01-2.33,1.01-4.03,0-1.55-.3-2.82-.91-3.81-.61-.99-1.41-1.82-2.43-2.5-1.02-.68-2.21-1.23-3.59-1.67-1.38-.44-2.87-.87-4.46-1.31-1.79-.48-3.55-1.02-5.29-1.6-1.74-.58-3.29-1.37-4.64-2.36-1.35-.99-2.45-2.25-3.3-3.77-.85-1.52-1.27-3.47-1.27-5.84s.44-4.45,1.31-6.24c.87-1.79,2.05-3.29,3.55-4.5,1.5-1.21,3.28-2.13,5.33-2.76,2.05-.63,4.27-.94,6.64-.94Z"/>
    <path class="cls-1" d="M126.84,215.21c-.1-1.55-.19-3.65-.29-6.31-.1-2.66-.15-5.39-.15-8.2,0-1.6.01-3.25.04-4.97.02-1.72.06-3.47.11-5.26.1-3.58.33-6.38.69-8.41.36-2.03,1.09-3.55,2.18-4.57s2.62-1.64,4.61-1.89c1.98-.24,4.62-.36,7.91-.36h1.56c.99,0,2.19.01,3.59.04,1.4.02,2.86.06,4.39.11,1.52.05,2.79.1,3.81.15,1.06.1,1.92.23,2.58.4.65.17,1.15.39,1.49.65.34.27.56.58.65.94.1.36.14.76.14,1.2,0,1.11-.31,1.92-.94,2.43-.63.51-1.91.83-3.84.98-.97.1-2.38.16-4.24.18-1.86.03-3.76.04-5.69.04s-3.68.01-5.22.04c-1.55.03-2.51.04-2.9.04-1.26.05-2.14.33-2.65.83-.51.51-.76,1.7-.76,3.59,0,.43.04,1.49.11,3.16.07,1.67.11,4,.11,7h6.02c2.56,0,4.65.04,6.27.11s2.88.23,3.77.47c.89.24,1.51.63,1.85,1.16.34.53.51,1.23.51,2.1,0,.43-.04.83-.11,1.2-.07.36-.28.68-.62.94-.34.27-.82.48-1.45.65-.63.17-1.52.3-2.68.4-1.4.1-2.72.16-3.95.18-1.23.03-2.45.04-3.66.04h-6.09v5.73c0,1.06.01,2.1.04,3.12.02,1.02.06,1.84.11,2.47.05.77.16,1.43.33,1.96.17.53.48.97.94,1.31.46.34,1.14.58,2.03.72.89.15,2.09.22,3.59.22h15.59c1.69,0,2.76.32,3.19.94.44.63.65,1.47.65,2.54,0,.87-.19,1.54-.58,1.99-.39.46-1.32.8-2.79,1.02-1.48.22-3.67.35-6.6.4-2.93.05-6.95.07-12.08.07-2.18,0-3.97-.19-5.37-.58-1.4-.39-2.54-1.04-3.41-1.96-.87-.92-1.51-2.11-1.92-3.59-.41-1.47-.69-3.28-.83-5.4Z"/>
    <path class="cls-1" d="M174.2,206v4.1c0,1.19-.01,2.31-.04,3.37-.03,1.06-.06,2.13-.11,3.19-.05,1.06-.1,2.25-.15,3.55,3.34-.39,5.95-.7,7.83-.94,1.89-.24,3.37-.43,4.46-.58s1.93-.24,2.54-.29c.6-.05,1.32-.07,2.14-.07,2.13,0,3.19,1.04,3.19,3.12,0,.82-.42,1.52-1.27,2.1-.85.58-1.91,1.08-3.19,1.49s-2.71.75-4.28,1.01c-1.57.27-3.09.46-4.57.58-1.47.12-2.8.21-3.99.25-1.19.05-2.02.07-2.5.07-1.74,0-3.09-.11-4.06-.33-.97-.22-1.69-.87-2.18-1.96s-.79-2.74-.91-4.97c-.12-2.22-.18-5.37-.18-9.43v-10.44c0-3.05.02-5.78.07-8.2s.08-4.57.11-6.46c.02-1.89.08-3.6.18-5.15.1-1.98.44-3.28,1.02-3.88.58-.6,1.31-.91,2.18-.91.48,0,.91.04,1.27.11s.69.28.98.62c.29.34.52.82.69,1.45.17.63.28,1.52.33,2.68.19,4.25.31,8.46.36,12.62.05,4.16.07,8.58.07,13.27Z"/>
    <path class="cls-1" d="M200.31,215.21c-.1-1.55-.19-3.65-.29-6.31-.1-2.66-.15-5.39-.15-8.2,0-1.6.01-3.25.04-4.97.02-1.72.06-3.47.11-5.26.1-3.58.33-6.38.69-8.41.36-2.03,1.09-3.55,2.18-4.57s2.62-1.64,4.61-1.89c1.98-.24,4.62-.36,7.91-.36h1.56c.99,0,2.19.01,3.59.04,1.4.02,2.86.06,4.39.11,1.52.05,2.79.1,3.81.15,1.06.1,1.92.23,2.58.4.65.17,1.15.39,1.49.65.34.27.56.58.65.94.1.36.14.76.14,1.2,0,1.11-.31,1.92-.94,2.43-.63.51-1.91.83-3.84.98-.97.1-2.38.16-4.24.18-1.86.03-3.76.04-5.69.04s-3.68.01-5.22.04c-1.55.03-2.51.04-2.9.04-1.26.05-2.14.33-2.65.83-.51.51-.76,1.7-.76,3.59,0,.43.04,1.49.11,3.16.07,1.67.11,4,.11,7h6.02c2.56,0,4.65.04,6.27.11s2.88.23,3.77.47c.89.24,1.51.63,1.85,1.16.34.53.51,1.23.51,2.1,0,.43-.04.83-.11,1.2-.07.36-.28.68-.62.94-.34.27-.82.48-1.45.65-.63.17-1.52.3-2.68.4-1.4.1-2.72.16-3.95.18-1.23.03-2.45.04-3.66.04h-6.09v5.73c0,1.06.01,2.1.04,3.12.02,1.02.06,1.84.11,2.47.05.77.16,1.43.33,1.96.17.53.48.97.94,1.31.46.34,1.14.58,2.03.72.89.15,2.09.22,3.59.22h15.59c1.69,0,2.76.32,3.19.94.44.63.65,1.47.65,2.54,0,.87-.19,1.54-.58,1.99-.39.46-1.32.8-2.79,1.02-1.48.22-3.67.35-6.6.4-2.93.05-6.95.07-12.08.07-2.18,0-3.97-.19-5.37-.58-1.4-.39-2.54-1.04-3.41-1.96-.87-.92-1.51-2.11-1.92-3.59-.41-1.47-.69-3.28-.83-5.4Z"/>
    <path class="cls-1" d="M259.35,174.88c1.6,0,3.2.13,4.82.4,1.62.27,3.08.68,4.39,1.23,1.31.56,2.38,1.23,3.23,2.03.84.8,1.27,1.73,1.27,2.79s-.29,1.96-.87,2.54-1.31.87-2.18.87c-.82,0-1.55-.13-2.18-.4-.63-.27-1.34-.57-2.14-.91-.8-.34-1.75-.64-2.87-.91-1.11-.27-2.59-.4-4.42-.4s-3.59.47-5.26,1.42c-1.67.94-3.12,2.25-4.35,3.92-1.23,1.67-2.21,3.64-2.94,5.91-.72,2.27-1.09,4.74-1.09,7.4,0,3.29.42,6.12,1.27,8.49.85,2.37,1.95,4.32,3.3,5.84,1.35,1.52,2.89,2.66,4.61,3.41,1.72.75,3.45,1.12,5.19,1.12,2.08,0,3.82-.22,5.22-.65,1.4-.44,2.6-.92,3.59-1.45s1.85-1.02,2.58-1.45c.73-.43,1.43-.65,2.1-.65.82,0,1.47.23,1.96.69.48.46.73,1.27.73,2.43,0,.97-.38,1.95-1.12,2.94-.75.99-1.84,1.89-3.26,2.68-1.43.8-3.13,1.45-5.11,1.96-1.98.51-4.21.76-6.67.76-2.71,0-5.4-.53-8.09-1.59-2.68-1.06-5.08-2.65-7.18-4.75s-3.81-4.74-5.11-7.91-1.96-6.85-1.96-11.06.59-7.95,1.78-11.24,2.8-6.08,4.86-8.38c2.05-2.3,4.45-4.05,7.18-5.26,2.73-1.21,5.64-1.81,8.74-1.81Z"/>
    <path class="cls-1" d="M308.45,182.14c-1.35.1-2.79.17-4.32.22-1.52.05-3.2.1-5.04.15.05,1.31.1,2.53.15,3.66.05,1.14.1,2.29.14,3.45.05,1.16.08,2.37.11,3.63.02,1.26.04,2.66.04,4.21v6.27c0,2.01-.03,4.01-.07,6.02-.05,2.01-.1,4.03-.14,6.06-.05,2.03-.12,4.13-.22,6.31-.05,1.16-.16,2.06-.33,2.68-.17.63-.4,1.11-.69,1.45s-.63.54-1.01.62c-.39.07-.82.11-1.31.11-.87,0-1.61-.3-2.21-.91-.61-.6-.96-1.9-1.05-3.88-.1-1.74-.16-3.58-.18-5.51-.03-1.93-.06-4.01-.11-6.24-.05-2.22-.07-4.63-.07-7.22v-8.59c0-2.66.01-4.98.04-6.96.02-1.98.08-3.7.18-5.15h-2.97c-2.03,0-3.76-.02-5.19-.07-1.43-.05-2.6-.18-3.52-.4-.92-.22-1.58-.57-2-1.05-.41-.48-.62-1.16-.62-2.03,0-.44.05-.83.15-1.2.1-.36.31-.7.65-1.02.34-.31.81-.57,1.41-.76.6-.19,1.39-.34,2.36-.43.92-.05,1.74-.1,2.47-.15.73-.05,1.45-.1,2.18-.14.73-.05,1.47-.07,2.25-.07h2.68c2.85,0,5.55.02,8.09.07,2.54.05,5.23.14,8.09.29,1.16.1,2.05.23,2.68.4.63.17,1.11.4,1.45.69.34.29.54.63.62,1.02.07.39.11.82.11,1.31,0,.87-.3,1.59-.91,2.18-.6.58-1.9.92-3.88,1.01Z"/>
  </g>
</svg>