<?xml version="1.0" encoding="UTF-8"?>
<svg id="Triangle" xmlns="http://www.w3.org/2000/svg" viewBox="0 0 400 400">
  <defs>
    <style>
      .cls-1 {
        stroke-width: 12px;
      }

      .cls-1, .cls-2 {
        fill: none;
        stroke: #231f20;
        stroke-miterlimit: 10;
      }

      .cls-2 {
        stroke-width: 18px;
      }
    </style>
  </defs>
  <circle class="cls-1" cx="202.34" cy="201.86" r="149.91"/>
  <path class="cls-2" d="M265.13,263.51c-3.35,3.34-8.65,4.08-13.79,4.49-26.43.99-61.52.18-88.24.4-28.63-.12-32.3-1.52-32.17-31.98.08-23.9-.3-55.94.19-79.5.45-16.5,4.2-21.58,18.93-22.36,26.35-.93,61.23-.17,87.73-.38,6.93.1,14.61-.02,20.92,1.53,6.18,1.62,8.87,5.07,10.12,11.64.9,4.7,1.07,11.04,1.13,18.81.04,20.34.05,50.89,0,70.94-.04,8.39-.1,22.35-4.74,26.33l-.07.07Z"/>
</svg>