<?xml version="1.0" encoding="UTF-8"?>
<svg id="Triangle" xmlns="http://www.w3.org/2000/svg" viewBox="0 0 400 400">
  <defs>
    <style>
      .cls-1 {
        stroke-linecap: round;
        stroke-width: 18px;
      }

      .cls-1, .cls-2 {
        fill: none;
        stroke: #231f20;
        stroke-miterlimit: 10;
      }

      .cls-2 {
        stroke-width: 12px;
      }
    </style>
  </defs>
  <circle class="cls-2" cx="202.66" cy="203.23" r="149.91"/>
  <path class="cls-1" d="M277.85,255.2c.83-2.02-.94-4.25-1.74-6.22-11.5-21.88-26.67-50.55-40.23-76.23-12.22-22.91-22.76-43.59-32.61-61.41-1.24-1.94-2.11-2.63-3.09-2.01-16.1,26.31-57.93,110.48-73.13,138.07-1.18,2.28-2.77,5.16-2.82,7.1.05,1.13.93,1.66,2.84,1.91,16.98.64,35.33.05,57.48.21,28.45-.04,61.94-.02,86.65-.11,2.24-.18,4.99.26,6.62-1.27l.02-.03Z"/>
</svg>