<?xml version="1.0" encoding="UTF-8"?>
<svg id="Triangle" xmlns="http://www.w3.org/2000/svg" viewBox="0 0 400 400">
  <defs>
    <style>
      .cls-1 {
        fill: #231f20;
      }

      .cls-2 {
        fill: none;
        stroke: #231f20;
        stroke-miterlimit: 10;
        stroke-width: 12px;
      }
    </style>
  </defs>
  <circle class="cls-2" cx="202.34" cy="198.11" r="149.91"/>
  <path class="cls-1" d="M200.99,220.39l-34.26,53.12c-2.15,3.37-4.48,5.94-7.01,7.7s-5.4,2.64-8.62,2.64c-3.99,0-6.78-.96-8.39-2.87s-2.41-4.33-2.41-7.24c0-1.69.34-3.45,1.04-5.29.69-1.84,1.65-3.6,2.87-5.29l42.77-61.16-42.77-61.16c-1.23-1.69-2.18-3.45-2.87-5.29-.69-1.84-1.04-3.6-1.04-5.29,0-2.91.8-5.32,2.41-7.24,1.61-1.92,4.41-2.87,8.39-2.87,3.22,0,6.09.88,8.62,2.64,2.53,1.76,4.87,4.33,7.01,7.7l34.26,53.12,34.26-53.12c2.14-3.37,4.48-5.94,7.01-7.7,2.53-1.76,5.4-2.64,8.62-2.64,3.98,0,6.78.96,8.39,2.87,1.61,1.92,2.41,4.33,2.41,7.24,0,1.69-.34,3.45-1.03,5.29-.69,1.84-1.65,3.6-2.88,5.29l-42.77,61.16,42.77,61.16c1.22,1.69,2.18,3.45,2.88,5.29.69,1.84,1.03,3.6,1.03,5.29,0,2.91-.8,5.33-2.41,7.24s-4.41,2.87-8.39,2.87c-3.22,0-6.09-.88-8.62-2.64s-4.87-4.33-7.01-7.7l-34.26-53.12Z"/>
</svg>