<?xml version="1.0" encoding="UTF-8"?>
<svg id="Layer_1" data-name="Layer 1" xmlns="http://www.w3.org/2000/svg" viewBox="0 0 577 127">
  <defs>
    <style>
      .cls-1 {
        fill: #bde7f9;
        stroke: #59c1ee;
        stroke-miterlimit: 10;
        stroke-width: 12px;
      }
    </style>
  </defs>
  <path class="cls-1" d="M544.42,92.8c-8.45,5.3-17.9,5.42-27.88,6.33-40.91,2.2-85.92.18-127.4.74-119.39-.91-236.48,2.71-342.01-1.62-7.41-.77-16.09-2.22-21.85-6.57-6.41-4.84-7.73-12.05-8.55-20.76-.51-6.56-.65-13.34.1-19.84.96-11.79,8.69-19.01,20.56-21.71,3.79-.94,7.78-1.46,11.68-1.76,137.06-3.69,307.3-1.41,447.63-1.05,10.27.1,20.29-.14,30.52,1.22,14.94,1.96,26.48,7.42,28.07,22.54,1.42,14.17,2.54,33.45-10.75,42.4l-.14.09Z"/>
</svg>