<?xml version="1.0" encoding="UTF-8"?>
<svg id="Layer_1" data-name="Layer 1" xmlns="http://www.w3.org/2000/svg" viewBox="0 0 304 153">
  <defs>
    <style>
      .cls-1 {
        fill: #bde7f9;
        stroke: #59c1ee;
        stroke-miterlimit: 10;
        stroke-width: 12px;
      }
    </style>
  </defs>
  <path class="cls-1" d="M278.36,127.01c-7.67,7.42-22.58,7.62-33.52,7.89-68.24-1.32-142.6,3.74-205.77-1.82-4.83-.88-9.37-2.49-12.92-5.3-9.5-7.51-9.34-21.23-9.67-32.36.18-18.16-2.23-40.03,1.79-58.51,2.2-10.03,8.18-16.64,18.35-18.33,65.61-5.79,142.28-2.26,209.14-1.79,16.59.05,35.48,1.23,38.62,21.02,2.71,19.77,2.83,43.13,1.47,64.47-.86,9.34-2.19,19.76-7.39,24.63l-.1.1Z"/>
</svg>