<?xml version="1.0" encoding="UTF-8"?>
<svg id="Layer_1" data-name="Layer 1" xmlns="http://www.w3.org/2000/svg" viewBox="0 0 304.5 108">
  <defs>
    <style>
      .cls-1 {
        fill: #bde7f9;
        stroke: #59c1ee;
        stroke-miterlimit: 10;
        stroke-width: 12px;
      }
    </style>
  </defs>
  <path class="cls-1" d="M278.71,84.2c-2.95,2.42-7.12,3.66-12.16,4.42-6.56.98-14.24,1.22-21.41,1.32-56.69.19-123.86.11-176.2.06-12.88-.59-36.97,2.11-46.1-7.46-6.19-6.47-6.54-18.35-6.76-27.65.32-11.58-.57-22.17,4.56-30.13,6.25-8.35,20.27-7.99,30.59-8.6,59.97.07,134.61-.72,197.61.16,5.96.13,12.22.3,18.05,1.43,14.24,2.56,18.4,10.47,19.08,23.94.34,12.12,2.15,34.23-7.14,42.42l-.11.09Z"/>
</svg>