<?xml version="1.0" encoding="UTF-8"?>
<svg id="Layer_1" data-name="Layer 1" xmlns="http://www.w3.org/2000/svg" viewBox="0 0 304 221">
  <defs>
    <style>
      .cls-1 {
        fill: #bde7f9;
        stroke: #59c1ee;
        stroke-miterlimit: 10;
        stroke-width: 12px;
      }
    </style>
  </defs>
  <path class="cls-1" d="M278.82,193.39c-7.67,11.71-22.58,12.02-33.52,12.45-68.24-2.09-142.6,5.91-205.77-2.87-4.83-1.39-9.37-3.93-12.92-8.36-9.5-11.85-9.34-33.48-9.67-51.04.18-28.64-2.23-63.13,1.79-92.29,2.2-15.82,8.18-26.24,18.35-28.91,65.61-9.14,142.28-3.56,209.14-2.82,16.59.08,35.48,1.94,38.62,33.15,2.71,31.18,2.83,68.02,1.47,101.68-.86,14.72-2.19,31.16-7.39,38.84l-.1.16Z"/>
</svg>