<?xml version="1.0" encoding="UTF-8"?>
<svg id="Layer_1" data-name="Layer 1" xmlns="http://www.w3.org/2000/svg" viewBox="0 0 577 260.67">
  <defs>
    <style>
      .cls-1 {
        fill: #fbdad7;
        stroke: #eb567c;
        stroke-miterlimit: 10;
        stroke-width: 12px;
      }
    </style>
  </defs>
  <path class="cls-1" d="M546.21,230.07c-7.76,12.25-19.13,14.55-29.05,16.88-21.31,4.38-47.11,2.67-70.14,2.08-126.54-2.39-268.56,5.7-382.12-2.55-12.94-1.13-29.91-4.44-38.55-24.87-4.88-11.52-6.19-28.25-6.98-44.98-1.08-36.49-2.92-104.07,5.84-134.3,5.67-22.62,23.23-27.02,36.7-27.73,17.43-1.19,38.37-1.38,56.21-1.72,123.23,2.88,283.48-7.01,406.85,4.25,30.83,7.86,32.71,38.99,33.55,92.39.11,19.65.09,39.64-.34,58.44-.46,22.17-2.67,47.36-11.83,61.9l-.13.21Z"/>
</svg>