<?xml version="1.0" encoding="UTF-8"?>
<svg id="Layer_1" data-name="Layer 1" xmlns="http://www.w3.org/2000/svg" viewBox="0 0 577 152">
  <defs>
    <style>
      .cls-1 {
        fill: #fbdad7;
        stroke: #eb567c;
        stroke-miterlimit: 10;
        stroke-width: 12px;
      }
    </style>
  </defs>
  <path class="cls-1" d="M546.21,129.26c-7.76,6.16-19.13,7.32-29.05,8.49-21.31,2.2-47.11,1.34-70.14,1.05-126.54-1.2-268.56,2.87-382.12-1.28-12.94-.57-29.91-2.24-38.55-12.51-4.88-5.8-6.19-14.21-6.98-22.62-1.08-18.35-2.92-52.34,5.84-67.54,5.67-11.38,23.23-13.59,36.7-13.94,17.43-.6,38.37-.7,56.21-.87,123.23,1.45,283.48-3.52,406.85,2.14,30.83,3.95,32.71,19.61,33.55,46.47.11,9.88.09,19.94-.34,29.39-.46,11.15-2.67,23.82-11.83,31.13l-.13.1Z"/>
</svg>