<?xml version="1.0" encoding="UTF-8"?>
<svg id="Triangle" xmlns="http://www.w3.org/2000/svg" viewBox="0 0 400 400">
  <defs>
    <style>
      .cls-1 {
        fill: #231f20;
      }

      .cls-2 {
        fill: none;
        stroke: #231f20;
        stroke-miterlimit: 10;
        stroke-width: 12px;
      }
    </style>
  </defs>
  <path class="cls-1" d="M187.55,297.22c-10.01,0-18.05-.8-24.13-2.41-6.08-1.61-10.77-3.89-14.07-6.84-3.31-2.95-5.54-6.57-6.7-10.86-1.17-4.29-2.01-9.11-2.55-14.48-.54-6.25-.94-14.52-1.21-24.8-.27-10.28-.4-20.95-.4-32.04,0-5.36.04-11.03.13-17.02.09-5.99.18-11.88.27-17.69.09-5.81.22-11.21.4-16.22.18-5,.44-9.29.8-12.87.54-5.54,1.43-10.54,2.68-15.01,1.25-4.47,3.62-8.31,7.1-11.53,3.48-3.22,8.4-5.67,14.74-7.37,6.34-1.7,14.79-2.55,25.33-2.55,23.95,0,41.86,4.42,53.75,13.27,11.88,8.85,17.83,21.4,17.83,37.67,0,8.4-1.83,16.18-5.5,23.32-3.67,7.15-9.96,12.51-18.9,16.08,5,.9,9.56,2.77,13.67,5.63,4.11,2.86,7.64,6.3,10.59,10.32,2.95,4.02,5.18,8.49,6.7,13.4,1.52,4.92,2.28,9.88,2.28,14.88,0,6.43-1.34,13-4.02,19.7s-7.24,12.83-13.67,18.36c-6.43,5.54-14.97,10.1-25.6,13.67-10.64,3.58-23.82,5.36-39.54,5.36ZM193.99,131.01c-5.9,0-10.68.49-14.34,1.47-3.67.98-6.43,2.28-8.31,3.89-1.88,1.61-3.13,3.58-3.75,5.9-.63,2.32-.94,4.83-.94,7.51v37.53c2.5.18,5.14.27,7.91.27h7.91c6.43,0,12.73-.44,18.9-1.34,6.17-.89,11.75-2.41,16.76-4.56,5-2.15,9.02-5.09,12.06-8.85,3.04-3.75,4.56-8.58,4.56-14.48,0-8.04-3.26-14.61-9.79-19.7-6.53-5.09-16.85-7.64-30.96-7.64ZM243.58,239.31c0-6.43-1.47-11.62-4.42-15.55-2.95-3.93-6.75-6.92-11.39-8.98-4.65-2.05-9.83-3.44-15.55-4.16-5.72-.71-11.44-1.07-17.16-1.07h-13.94c-4.83,0-9.29.09-13.4.27-.18,3.75-.36,7.6-.54,11.53-.18,3.93-.31,7.64-.4,11.13-.09,3.48-.13,6.53-.13,9.11v5.5c0,4.83.36,8.85,1.07,12.06.71,3.22,2.05,5.81,4.02,7.77,1.96,1.97,4.78,3.35,8.44,4.16,3.66.8,8.35,1.21,14.07,1.21,15.72,0,27.88-2.77,36.46-8.31,8.58-5.54,12.87-13.76,12.87-24.66Z"/>
  <circle class="cls-2" cx="199.62" cy="201.48" r="149.91"/>
</svg>