<?xml version="1.0" encoding="UTF-8"?>
<svg id="Triangle" xmlns="http://www.w3.org/2000/svg" viewBox="0 0 400 400">
  <defs>
    <style>
      .cls-1 {
        fill: #231f20;
      }

      .cls-2 {
        fill: none;
        stroke: #231f20;
        stroke-miterlimit: 10;
        stroke-width: 12px;
      }
    </style>
  </defs>
  <circle class="cls-2" cx="200.42" cy="200.68" r="149.91"/>
  <path class="cls-1" d="M245.27,265.92c-1.62-3.89-3.36-8.38-5.22-13.48-1.86-5.1-3.85-10.49-5.95-16.16-4.86.16-9.96.29-15.31.36-5.35.08-10.77.12-16.28.12h-18.95c-5.67,0-10.85-.08-15.55-.24-1.94,5.67-3.81,11.02-5.59,16.04-1.78,5.02-3.48,9.48-5.1,13.36-3.24,8.26-7.94,12.39-14.09,12.39-2.27,0-4.42-.73-6.44-2.19-2.03-1.46-3.04-3.56-3.04-6.32s.49-6.35,1.46-10.81c.97-4.45,2.22-9.23,3.77-14.33,1.54-5.1,3.2-10.36,4.98-15.79,1.78-5.42,3.48-10.49,5.1-15.18,1.62-5.18,3.92-11.78,6.92-19.8,3-8.02,6.2-16.4,9.6-25.15s6.8-17.37,10.21-25.88c3.4-8.5,6.48-15.91,9.23-22.23.65-1.62,1.46-3.44,2.43-5.47.97-2.02,2.14-3.93,3.52-5.71,1.37-1.78,2.92-3.32,4.62-4.62,1.7-1.29,3.6-1.94,5.71-1.94s4.05.69,5.83,2.07c1.78,1.38,3.36,3.04,4.74,4.98,1.37,1.94,2.59,3.97,3.64,6.07,1.05,2.11,1.9,3.97,2.55,5.59,2.59,6.48,5.55,13.93,8.87,22.35,3.32,8.42,6.64,16.93,9.96,25.51,3.32,8.59,6.44,16.76,9.35,24.54,2.92,7.77,5.26,14.33,7.05,19.68,1.46,4.7,3.12,9.72,4.98,15.06,1.86,5.34,3.6,10.61,5.22,15.79,1.62,5.19,2.95,10,4.01,14.46,1.05,4.46,1.58,8.06,1.58,10.81s-1.01,4.86-3.04,6.32c-2.03,1.46-4.17,2.19-6.44,2.19-2.92,0-5.59-1.01-8.02-3.04-2.43-2.02-4.54-5.14-6.32-9.35ZM202.27,212.47c3.89,0,7.77.04,11.66.12,3.89.08,7.77.21,11.66.36-1.94-5.67-3.89-11.34-5.83-17.01-1.94-5.67-3.77-11.09-5.47-16.28-1.7-5.18-3.24-10-4.62-14.46-1.38-4.45-2.55-8.38-3.52-11.78-.65-2.1-1.38-3.8-2.19-5.1-.81-1.29-1.86-1.94-3.16-1.94s-2.35.69-3.16,2.07c-.81,1.38-1.54,3.12-2.19,5.22-1.94,6.64-4.66,15.27-8.14,25.88-3.48,10.61-7.17,21.75-11.05,33.41,4.37-.16,8.75-.28,13.12-.36,4.37-.08,8.66-.12,12.88-.12Z"/>
</svg>