<?xml version="1.0" encoding="UTF-8"?>
<svg id="Triangle" xmlns="http://www.w3.org/2000/svg" viewBox="0 0 400 400">
  <defs>
    <style>
      .cls-1 {
        fill: #231f20;
      }

      .cls-2 {
        fill: none;
        stroke: #231f20;
        stroke-miterlimit: 10;
        stroke-width: 12px;
      }
    </style>
  </defs>
  <path class="cls-2" d="M178.74,328.41c-9.81-5.65-17.63-20.89-23.16-31.99-9.96-19.97-25.68-45.91-27.36-56.29-7.8-48.28-4.2-96.87-3.78-140.49.21-6.8.55-13.66,2.6-19.41,3.36-8.73,9.78-11.15,19.64-12.78,7.48-1.14,17.27-1.42,28.6-1.53,21.69.06,52.24-.67,72.4.92,10.09.78,21.48,3.63,24.46,12.98,3.33,9.41,2.69,19.85,2.91,32.12.93,53.47-1.06,124.26-.22,191.23.06,4.49-.47,8.42-1.07,11.81-1.89,11.13-7,17.47-18.89,18.07-24.29,1.22-10.28.84-34.4,1.17-12.57-.13-33.69-.13-41.67-5.75l-.07-.05Z"/>
  <g>
    <path class="cls-1" d="M172.63,197.09c-1.01.07-2.03.13-3.08.16-1.04.04-2.11.05-3.19.05h-3.67c-1.22,0-2.59-.07-4.1-.22v21.92c0,2.3-.56,3.73-1.67,4.27-1.12.54-2.5.81-4.16.81-.86,0-1.55-.05-2.05-.16-.5-.11-.92-.32-1.24-.65-.32-.32-.58-.81-.76-1.46-.18-.65-.31-1.55-.38-2.7-.15-1.3-.25-3.19-.32-5.67-.07-2.48-.13-5.7-.16-9.66-.04-3.96-.07-8.76-.11-14.42-.04-5.65-.05-12.29-.05-19.92,0-2.95.36-5.81,1.08-8.58.72-2.77,2.01-5.22,3.89-7.34,1.87-2.12,4.41-3.83,7.61-5.13,3.2-1.3,7.29-1.94,12.26-1.94,3.53,0,6.96.4,10.31,1.19,3.35.79,6.32,2.16,8.91,4.1,2.59,1.94,4.68,4.57,6.26,7.88,1.58,3.31,2.38,7.45,2.38,12.42,0,6.62-1.42,11.75-4.26,15.39-2.84,3.64-6.75,6.21-11.72,7.72l14.47,19.87c1.3,1.73,1.94,3.49,1.94,5.29,0,1.44-.49,2.58-1.46,3.4-.97.83-2.18,1.24-3.62,1.24-1.58,0-2.95-.45-4.1-1.35-1.15-.9-2.23-2.07-3.24-3.51l-15.77-23ZM189.58,171.93c0-4.97-1.49-8.66-4.48-11.07-2.99-2.41-7.72-3.62-14.2-3.62-2.38,0-4.36.2-5.94.59-1.58.4-2.84,1.13-3.78,2.21-.94,1.08-1.6,2.58-2,4.48-.4,1.91-.59,4.34-.59,7.29v7.34c0,2.81.04,5.36.11,7.67,1.66.07,3.51.11,5.56.11h5.78c2.01,0,4.16-.12,6.43-.38,2.27-.25,4.37-.9,6.32-1.94,1.94-1.04,3.56-2.55,4.86-4.54,1.3-1.98,1.94-4.7,1.94-8.15Z"/>
    <path class="cls-1" d="M250.91,158c-2.02.15-4.16.25-6.42.32-2.27.07-4.77.15-7.5.22.07,1.94.14,3.76.22,5.45.07,1.69.14,3.4.22,5.13.07,1.73.12,3.53.16,5.4.04,1.87.05,3.96.05,6.26v9.34c0,2.99-.04,5.98-.11,8.96-.07,2.99-.15,5.99-.22,9.02-.07,3.02-.18,6.15-.32,9.39-.07,1.73-.24,3.06-.49,4-.25.94-.59,1.66-1.03,2.16-.43.5-.94.81-1.51.92-.58.11-1.23.16-1.94.16-1.3,0-2.39-.45-3.29-1.35-.9-.9-1.42-2.83-1.57-5.78-.14-2.59-.23-5.33-.27-8.21-.04-2.88-.09-5.97-.16-9.29-.07-3.31-.11-6.89-.11-10.74v-12.8c0-3.96.02-7.41.05-10.37.04-2.95.12-5.51.27-7.67h-4.43c-3.02,0-5.6-.04-7.72-.11-2.12-.07-3.87-.27-5.24-.59-1.37-.32-2.36-.84-2.97-1.57-.61-.72-.92-1.73-.92-3.02,0-.65.07-1.24.22-1.78.14-.54.47-1.04.97-1.51.5-.47,1.2-.85,2.11-1.13.9-.29,2.07-.5,3.51-.65,1.37-.07,2.59-.14,3.67-.22,1.08-.07,2.16-.14,3.24-.22,1.08-.07,2.2-.11,3.35-.11h4c4.25,0,8.26.04,12.04.11,3.78.07,7.79.22,12.04.43,1.73.15,3.06.34,4,.59.94.25,1.66.59,2.16,1.03.5.43.81.94.92,1.51.11.58.16,1.22.16,1.94,0,1.3-.45,2.38-1.35,3.24-.9.86-2.83,1.37-5.78,1.51Z"/>
  </g>
</svg>