<?xml version="1.0" encoding="UTF-8"?>
<svg id="Triangle" xmlns="http://www.w3.org/2000/svg" viewBox="0 0 400 400">
  <defs>
    <style>
      .cls-1 {
        fill: #231f20;
      }

      .cls-2 {
        fill: none;
        stroke: #231f20;
        stroke-miterlimit: 10;
        stroke-width: 12px;
      }
    </style>
  </defs>
  <circle class="cls-2" cx="201.15" cy="200.68" r="149.91"/>
  <path class="cls-1" d="M190.13,284.56c-.34-9.25-.63-19.13-.88-29.65-.25-10.51-.38-22.67-.38-36.46l-50.21-71.92c-1.35-1.85-2.4-3.78-3.15-5.8-.76-2.02-1.14-3.95-1.14-5.8,0-3.19.88-5.84,2.65-7.95,1.77-2.1,4.83-3.15,9.21-3.15,3.53,0,6.69.97,9.46,2.9,2.78,1.94,5.34,4.75,7.7,8.45l37.6,59.8,37.6-59.8c2.35-3.7,4.92-6.52,7.7-8.45,2.78-1.93,5.93-2.9,9.46-2.9,4.37,0,7.44,1.05,9.21,3.15,1.77,2.11,2.65,4.75,2.65,7.95,0,1.85-.38,3.79-1.13,5.8-.76,2.02-1.81,3.96-3.15,5.8l-49.21,70.4c0,11.44-.13,22.42-.38,32.93-.25,10.52-.63,22-1.14,34.44-.17,4.04-.55,7.15-1.14,9.34-.59,2.19-1.39,3.87-2.4,5.05-1.01,1.18-2.15,1.89-3.41,2.14s-2.74.38-4.42.38c-3.03,0-5.55-1.05-7.57-3.15-2.02-2.1-3.2-6.6-3.53-13.5Z"/>
</svg>